<?xml version="1.0" encoding="utf-8"?>
<!-- Generator: Adobe Illustrator 27.7.0, SVG Export Plug-In . SVG Version: 6.00 Build 0)  -->
<svg version="1.1" xmlns="http://www.w3.org/2000/svg" xmlns:xlink="http://www.w3.org/1999/xlink" x="0px" y="0px"
	 viewBox="0 0 3000 2000" style="enable-background:new 0 0 3000 2000;" xml:space="preserve">
<style type="text/css">
	.st0{fill:#DADADA;}
	.st1{fill:#F6F5F5;}
	.st2{fill:#FF9064;}
	.st3{opacity:0.5;fill:#B25834;}
	.st4{opacity:0.3;fill:#FFFFFF;}
	.st5{fill:#102048;}
	.st6{fill:#86A7FF;}
	.st7{fill:#D3DFFF;}
	.st8{fill:#ADC3FF;}
	.st9{opacity:0.3;fill:#86A7FF;}
	.st10{fill:#7D69ED;}
	.st11{fill:#5B4DAD;}
	.st12{opacity:0.4;fill:#5B4DAD;}
	.st13{fill:#EB5D60;}
	.st14{fill:#FFFFFF;}
</style>
<g id="BACKGROUND">
</g>
<g id="OBJECTS">
	<g>
		<g>
			<path class="st0" d="M1423.3,467.9l-3.3-3.9c0.9-0.8,91-75.8,221.3-113.8c120.3-35.2,300.6-45.1,475.5,107.1l-3.3,3.8
				c-173.2-150.7-351.5-140.9-470.6-106.1C1513.7,392.7,1424.2,467.2,1423.3,467.9z"/>
			<path class="st1" d="M2813.4,1440.2c-18.8-200.3-96.4-352.3-297.6-463.8c-59.3-32.9-133.6-49-169.2-106.7
				c-35.3-57.3-22.2-130.6-29.2-197.6c-18-171.9-182.2-304.7-354-322.9c-171.8-18.2-342.8,59.6-473.3,172.9
				c-97.9,85-183.7,193.4-307.1,233.2c-203.5,65.6-424.9-80.7-633.7-34.9C437,745.1,342.7,823.8,273.9,915.9
				c-115.2,154.2-143.9,349.3-108.7,538.5c19.3,103.5,66.4,208.5,134,289l2421.1-5.1C2791.1,1667.7,2821.4,1526.1,2813.4,1440.2z"/>
			<circle class="st1" cx="1078.7" cy="481.2" r="187.1"/>
			
				<ellipse transform="matrix(0.7071 -0.7071 0.7071 0.7071 185.0406 1075.293)" class="st1" cx="1390.5" cy="314.3" rx="77.5" ry="77.5"/>
			
				<ellipse transform="matrix(0.7071 -0.7071 0.7071 0.7071 150.0101 2072.7603)" class="st1" cx="2577" cy="855.3" rx="77.5" ry="77.5"/>
			<path class="st0" d="M2801.8,1741.3l-4.5-2.4c90.9-171.4,100.6-355.7,26.4-505.6c-78-157.6-237.1-263.6-448.1-298.5l0.8-5
				c212.6,35.2,373.1,142.2,451.8,301.2C2903.1,1382.5,2893.5,1568.5,2801.8,1741.3z"/>
			<path class="st0" d="M313.4,1748.6c-109.5-118-181.8-260.1-209-410.9c-25.3-140.4-9-279.8,46.1-392.4
				C235.5,771.4,400.1,681.8,602,699.4l-0.4,5C401.8,687,239,775.6,155,947.6c-54.6,111.6-70.8,249.9-45.7,389.3
				c27,149.9,98.9,291.1,207.8,408.3L313.4,1748.6z"/>
		</g>
		<g>
			<rect x="606" y="1377" class="st2" width="650.6" height="366.2"/>
			<rect x="606" y="1377" class="st3" width="233.1" height="366.2"/>
			
				<rect x="948.2" y="1391.2" transform="matrix(1.120968e-06 -1 1 1.120968e-06 -428.7674 2414.3445)" class="st4" width="89.2" height="60.7"/>
		</g>
		<g>
			<rect x="1128.1" y="978" class="st5" width="1074.7" height="765.2"/>
			<g>
				<path class="st6" d="M2307.3,707.5h-198.8V526c0-36.6,29.7-66.3,66.3-66.3c18.3,0,34.9,7.4,46.9,19.4
					c11.8,11.8,19.3,28.2,19.4,46.3v0.6l-0.1,115.2c0,0.6,0,1.2,0.1,1.7v3.5l0.2-0.1C2243.9,680.5,2272.5,707.5,2307.3,707.5z"/>
				<path class="st7" d="M2373.6,601.1v40.1c0,18.3-7.4,34.9-19.4,46.8c-11.9,12-28.5,19.4-46.8,19.4c-34.9,0-63.5-27-66-61.2
					L2373.6,601.1z"/>
				<path class="st7" d="M2174.8,459.7c-1.4,0-2.8,0.1-4.1,0.2c-0.9,0.1-1.8,0.1-2.6,0.2c-1,0.1-1.9,0.2-2.8,0.4
					c-0.6,0.1-1.1,0.2-1.7,0.3c-0.7,0.1-1.4,0.3-2.1,0.4c-1,0.2-2,0.4-3,0.7c-1.4,0.4-2.8,0.8-4.2,1.3c-0.7,0.2-1.4,0.5-2.1,0.7
					c-0.7,0.2-1.4,0.5-2,0.8c-1,0.4-1.9,0.8-2.8,1.2c-0.8,0.4-1.6,0.7-2.4,1.2c-0.2,0.1-0.5,0.2-0.7,0.4c-0.7,0.4-1.4,0.8-2.1,1.2
					c-2.8,1.6-5.5,3.3-7.9,5.3c-0.7,0.6-1.5,1.2-2.1,1.7c-0.8,0.7-1.5,1.3-2.3,2c-0.8,0.7-1.5,1.4-2.2,2.1c-2,2-3.8,4.1-5.6,6.4
					c-0.8,1-1.5,2-2.2,3c-2.2,3.4-4.1,6.9-5.8,10.7c-0.4,0.9-0.8,1.9-1.2,2.8c-1.1,2.9-2,5.9-2.7,8.9c-0.2,1.1-0.4,2.1-0.6,3.1
					c-0.4,2.1-0.7,4.2-0.8,6.3v929.8h-886.2V563.1c0-57.1,46.3-103.3,103.3-103.3H2174.8z"/>
				<g>
					<rect x="1327.3" y="554.5" class="st8" width="672.5" height="35.4"/>
					<rect x="1327.3" y="658.1" class="st8" width="620.4" height="35.4"/>
					<rect x="1327.3" y="761.8" class="st8" width="587.7" height="35.4"/>
					<rect x="1327.3" y="865.4" class="st8" width="672.5" height="35.4"/>
					<rect x="1587.2" y="970.3" class="st8" width="364.6" height="35.4"/>
				</g>
				<path class="st5" d="M1660.6,1169.1c-4,0-7.7-1.4-10.3-4.9c-3.1-4.3-2.9-10.2-2.8-14.1l3.4-91.5l5.1,0.2l-3.4,91.5
					c-0.2,4.3-0.1,8.3,1.8,11c4.3,5.9,14.6,0.8,16.7-0.3c10.2-5.5,17.5-15.7,24.6-25.7c7.9-11,16-22.5,28.3-27.8
					c7.3-3.2,12.7,1.5,17,5.2c2.4,2.1,4.8,4.1,7.2,4.8c6.4,1.9,12.8,0.2,19.6-1.5c6-1.6,12.2-3.2,18.6-2.2
					c5.8,0.9,10.5,3.2,15.1,5.5c6.7,3.3,12.5,6.2,20.9,4.1c11.6-2.8,22.3-9.4,32.7-15.8c3-1.8,6-3.7,9.1-5.5
					c11.7-6.8,29.3-15.4,46.8-11.4l-1.1,4.9c-15.8-3.6-32.1,4.4-43.1,10.8c-3,1.7-6,3.6-9,5.4c-10.7,6.6-21.8,13.4-34.2,16.4
					c-10.2,2.4-17.4-1.1-24.4-4.5c-4.2-2.1-8.5-4.2-13.6-5c-5.3-0.8-10.8,0.6-16.5,2.1c-7.1,1.9-14.5,3.8-22.3,1.5
					c-3.5-1-6.3-3.5-9.1-5.9c-4.5-3.9-7.5-6.2-11.6-4.4c-11,4.8-18.4,15.2-26.2,26.1c-7.4,10.4-15.1,21.2-26.3,27.2
					C1669.5,1167.5,1664.9,1169.1,1660.6,1169.1z"/>
				<path class="st9" d="M2108.8,1010v440.6h-886.2V971.6l276.8,230.3c15.3,12.7,35.3,17.6,55,14.8c5.7-0.8,11.6-1.1,17.4-1
					l188.7,5.3c6.5,0.2,13,1,19.3,2.4c19.6,4.2,40,0.4,56.2-11.6L2108.8,1010z"/>
			</g>
			<g>
				<polygon class="st10" points="1532.1,1295.2 1524.7,1303.4 1191.2,1673.2 1128.1,1743.2 1128.1,978 				"/>
				<polygon class="st10" points="2202.7,978 1798.6,1295.2 2202.7,1743.2 				"/>
				<path class="st11" d="M1524.7,1303.4l-333.5,369.8l-63.2,13.9v-136c166.7-119.5,353.7-258,396.5-261L1524.7,1303.4z"/>
				<path class="st11" d="M1806,1303.4l333.5,369.8l63.2,13.9v-136c-166.7-119.5-353.7-258-396.5-261L1806,1303.4z"/>
				<path class="st10" d="M2202.7,1743.2H1128.1l0.2-100.7l370.3-335.9c19.4-17.6,44.7-27.4,71-27.4h188.8
					c25.8,0,50.8,9.5,70.1,26.6l375.3,333.2L2202.7,1743.2z"/>
			</g>
		</g>
		<g>
			
				<ellipse transform="matrix(0.7071 -0.7071 0.7071 0.7071 -477.861 1963.5546)" class="st12" cx="2131.3" cy="1558.6" rx="184.6" ry="184.6"/>
			<g>
				<g>
					
						<ellipse transform="matrix(0.7071 -0.7071 0.7071 0.7071 -461.5706 2002.8831)" class="st13" cx="2186.9" cy="1558.6" rx="184.6" ry="184.6"/>
				</g>
				<g>
					<path class="st14" d="M2183,1658.6c-8.8,0-17.2-3.7-23.2-10.3l-65.3-72.1c-5.6-6.2-5.2-15.8,1.1-21.4
						c6.2-5.6,15.8-5.2,21.4,1.1l65.3,72.1c0.1,0.1,0.4,0.4,0.9,0.3c0.5-0.1,0.7-0.4,0.7-0.6l70.3-160c3.4-7.7,12.3-11.2,20-7.8
						c7.7,3.4,11.2,12.3,7.8,20l-70.3,160c-4.3,9.8-13.1,16.6-23.6,18.3C2186.3,1658.5,2184.6,1658.6,2183,1658.6z"/>
				</g>
			</g>
		</g>
		<rect x="109.6" y="1741" class="st5" width="2806.2" height="5.1"/>
	</g>
</g>
</svg>
